<svg viewBox="0 0 24 24" fill="none" xmlns="http://www.w3.org/2000/svg"><path fill="#fff" d="M0 0h24v24h-24z"/><path d="M23.66 15.62c.74-2.34.13-4.99-.52-6.83a15.95 15.95 0 0 0-.66-1.64.85.85 0 0 0 .53-.78v-3.55a.85.85 0 0 0-.85-.85h-10.47a.43.43 0 0 0-.43.45c.15 2.56-.04 4.29-.58 5.51a.38.38 0 0 0-.03.04v.07c-.2.44-.49.85-.83 1.2l-.04.03v.03c-.5.47-1.07.86-1.7 1.15-1.1.48-2.22.9-3.37 1.25l-.21.07c-3.99 1.32-4.5 3.72-4.5 4.92a.4.4 0 0 0 0 .05v3.04c0 .15.08.29.2.37.98.59 2.04 1.05 3.14 1.35a.43.43 0 0 0 .54-.43v-.1h.62v.43c0 .21.15.4.36.43.37.06.74.1 1.1.13a.43.43 0 0 0 .47-.42v-.54h.62v.6c0 .24.2.43.43.43.36 0 .71 0 1.1-.05.22-.02.4-.2.39-.42v-.56h.63v.38a.43.43 0 0 0 .5.42c.77-.12 1.54-.3 2.3-.55l.06-.03c2.99-1.7 4.88-.3 4.96-.24a.4.4 0 0 0 .26.09h.52c.24 0 .43-.2.43-.43v-.72h.61v.72c0 .23.19.42.43.42h1.37c.23 0 .42-.19.42-.42v-.72h.63v.72c0 .23.2.42.43.42h1.05c.24 0 .43-.19.43-.42v-4.6c0-.2-.14-.38-.34-.42Zm-10.11-12.8h8.59v3.54h-8.6v-3.53Zm-5.36 8.5v.03c.35.28.68.6.97.94a.8.8 0 0 0-.12.43.81.81 0 1 0 .89-.8 6.84 6.84 0 0 0-.92-1.02 6.6 6.6 0 0 0 1.07-.76c.42.4.8.8 1.15 1.25a.81.81 0 1 0 .77-.54h-.1c-.38-.47-.79-.92-1.23-1.33.2-.25.39-.52.54-.8.66.34 1.3.73 1.91 1.15a.82.82 0 1 0 .46-.73 20.3 20.3 0 0 0-2.01-1.18c.46-1.24.66-2.88.57-5.11h.56v3.52c0 .47.38.86.85.86h7.99c.1.22.3.61.5 1.12h-.18a4.69 4.69 0 0 0-2.76 8.45c-3.44.91-8.63 1.99-13 1.7.81-3.2-.15-5.19-.78-6.06.98-.32 1.94-.7 2.87-1.12Zm-3.72 1.36c.46.55 1.66 2.36.78 5.71a10.7 10.7 0 0 1-4.38-1.32 2.7 2.7 0 0 1-.03-.3v-.03c-.03-.9.31-2.87 3.63-4.06Zm18.48 7.53v-.71c0-.24-.2-.43-.43-.43h-1.48c-.23 0-.42.2-.42.43v.7h-.53v-.7a.42.42 0 0 0-.42-.43h-1.47c-.24 0-.43.2-.43.43v.7c-.58-.37-2.7-1.42-5.7.26-.54.17-1.08.31-1.63.42v-.3c0-.23-.2-.42-.43-.42h-1.47c-.24 0-.43.2-.43.43v.58h-.21v-.6c0-.23-.2-.42-.43-.42h-1.48a.42.42 0 0 0-.42.43v.5l-.22-.03v-.47c0-.24-.2-.43-.43-.43h-1.48c-.21 0-.4.16-.42.37a10.9 10.9 0 0 1-2.18-.97v-1.53c1.86.99 4.27 1.36 6.82 1.36 6.8 0 14.57-2.6 15.48-2.91v3.74h-.2Zm-.21-4.5c-.36.12-1.25.43-2.49.76a3.83 3.83 0 0 1 2.12-7.26v.01c.63 1.8 1.19 4.38.37 6.5Z" fill="#2D383F"/><path d="M15.19 3.34a1.24 1.24 0 1 0 0 2.48 1.24 1.24 0 0 0 0-2.48Zm0 1.63a.39.39 0 1 1 0-.77.39.39 0 0 1 0 .77Z" fill="#2D383F"/></svg>