<svg viewBox="0 0 23 23" fill="none" xmlns="http://www.w3.org/2000/svg"><g clip-path="url(#a)"><path fill="#fff" d="M0 0h23v23h-23z"/><path d="m22.88 16.64-4.62-5.17h2.24c.26 0 .47-.2.47-.46 0-.1-.04-.2-.1-.28l-3.71-4.76h1.89c.26 0 .47-.21.47-.47a.45.45 0 0 0-.12-.3l-4.54-5.04a.48.48 0 0 0-.7 0l-4.55 5.04a.45.45 0 0 0 .03.65c.1.07.2.12.32.12h1.92l-1.15 1.45-3.05-3.4a.48.48 0 0 0-.71 0l-3.88 4.32a.44.44 0 0 0 .04.65c.08.07.2.11.31.11h1.5l-3.1 3.97c-.16.2-.12.5.1.65.07.05.17.08.26.09h1.75l-3.84 4.3c-.17.2-.14.5.06.66.08.07.19.1.3.1h5.22v3.24c0 .49.4.89.91.89h1.44c.5 0 .92-.4.92-.89v-3.23h3.92v3.23c0 .49.4.89.91.89h1.44c.5 0 .92-.4.92-.9v-4.7h6.38c.26 0 .47-.2.47-.46a.46.46 0 0 0-.12-.3Zm-14.86 5.44-1.4.03-.02-3.23h1.42v3.2Zm4.86-4.12h-11.37l3.85-4.3a.45.45 0 0 0-.03-.66.48.48 0 0 0-.33-.12h-1.84l3.1-3.97a.44.44 0 0 0-.08-.64.48.48 0 0 0-.29-.1h-1.41l2.83-3.15 2.83 3.14-2 2.57c-.15.2-.11.5.1.65.08.06.18.1.28.1h2.24l-4.62 5.16c-.17.2-.15.48.04.65.09.08.2.12.31.12h6.39v.55Zm2.32 4.1-1.38.05-.03-4.7h1.42v4.66Zm.03-5.58h-7.7l4.62-5.16a.45.45 0 0 0-.04-.66.48.48 0 0 0-.31-.11h-2.32l3.73-4.77c.15-.2.11-.5-.1-.64a.48.48 0 0 0-.28-.1h-1.8l3.5-3.88 3.48 3.88h-1.82a.47.47 0 0 0-.47.47c0 .1.03.2.1.28l3.7 4.76h-2.3c-.26 0-.47.2-.47.46 0 .11.04.22.12.3l4.62 5.17h-6.26Z" fill="#2D383F"/></g><defs><clipPath id="a"><path fill="#fff" d="M0 0h23v23h-23z"/></clipPath></defs></svg>