<svg xmlns="http://www.w3.org/2000/svg" xmlns:xlink="http://www.w3.org/1999/xlink"><symbol id="sprite-arrow" fill="none" viewBox="0 0 14 9"><path fill="#fff" d="M13.35 4.85a.5.5 0 0 0 0-.7l-3.18-3.19a.5.5 0 0 0-.7.71l2.82 2.83-2.83 2.83a.5.5 0 1 0 .71.7zm-13.35.15h13v-1h-13z"/></symbol><use xlink:href="#sprite-arrow" width="14" height="9"/><view id="sprite-arrow-view" viewBox="0 0 14 9"/><symbol id="sprite-boot" fill="none" viewBox="0 0 24 24"><path fill="#0266C1" d="M22.6 15.54c.68-2.29.12-4.88-.47-6.68a16 16 0 0 0-.6-1.6.9.9 0 0 0 .48-.77v-3.47c0-.46-.35-.84-.78-.84h-9.51c-.22 0-.4.19-.4.42l.01.02c.13 2.5-.04 4.2-.53 5.4l-.03.04v.06q-.28.66-.75 1.18l-.03.02v.03q-.7.7-1.55 1.13-1.5.71-3.06 1.23l-.2.07c-3.62 1.29-4.1 3.63-4.09 4.8v3.04q0 .23.19.35 1.34.88 2.84 1.33c.21.06.42-.07.48-.3l.02-.12v-.1h.57v.42c0 .2.13.38.32.42q.51.09 1 .13a.4.4 0 0 0 .3-.1q.12-.14.12-.32v-.52h.57v.6c0 .22.18.4.39.4q.49.01 1-.04c.2-.02.36-.2.36-.42v-.54h.57v.37c0 .23.16.42.38.42h.06q1.08-.18 2.1-.55l.06-.02c2.71-1.67 4.43-.3 4.5-.24q.1.08.24.09h.48c.21 0 .39-.2.39-.42v-.7h.55v.69c0 .23.17.42.39.42h1.25c.21 0 .38-.19.38-.42v-.7h.58v.7c0 .23.17.42.38.42h.96c.21 0 .39-.19.39-.42v-4.5c0-.2-.13-.37-.31-.41m-9.2-12.52h7.82v3.46h-7.81zm-4.86 8.32v.02q.48.42.88.93a1 1 0 0 0-.1.41c-.01.44.32.8.73.8s.74-.35.74-.79c0-.41-.29-.76-.67-.8a6 6 0 0 0-.84-.98q.53-.32.98-.75.56.58 1.04 1.23c-.13.41.07.87.46 1.01.38.15.8-.07.94-.49.13-.41-.07-.87-.45-1.01l-.25-.05h-.1q-.5-.7-1.1-1.3.27-.36.48-.78.9.5 1.74 1.13c0 .44.33.8.74.8.41.01.75-.34.75-.79 0-.44-.32-.8-.74-.81a1 1 0 0 0-.34.08 17 17 0 0 0-1.82-1.16c.42-1.2.6-2.81.52-5h.5v3.45c0 .46.35.84.78.84h7.26q.16.34.46 1.1h-.16c-2.36.02-4.25 2.09-4.23 4.62a4.7 4.7 0 0 0 1.72 3.65c-3.14.89-7.85 1.94-11.82 1.67.73-3.15-.14-5.09-.71-5.94a25 25 0 0 0 2.6-1.1Zm-3.39 1.33c.42.53 1.51 2.3.71 5.58a9 9 0 0 1-3.97-1.29l-.03-.29v-.03c-.03-.89.28-2.8 3.3-3.97Zm16.8 7.36v-.7c0-.22-.17-.41-.39-.41h-1.34c-.21 0-.39.19-.39.42v.7h-.47v-.7a.4.4 0 0 0-.4-.42h-1.33c-.21 0-.39.19-.39.42v.68c-.52-.36-2.45-1.39-5.18.26q-.72.25-1.48.41v-.29a.4.4 0 0 0-.39-.41h-1.34c-.2 0-.38.18-.38.41v.58h-.2v-.59c0-.23-.17-.42-.39-.42h-1.34c-.22 0-.39.2-.39.42v.5l-.2-.03v-.47c0-.23-.17-.42-.38-.42h-1.35a.4.4 0 0 0-.39.37 10 10 0 0 1-1.97-.95v-1.5c1.69.97 3.87 1.33 6.2 1.33 6.17 0 13.24-2.54 14.07-2.85v3.66zm-.19-4.4c-.33.12-1.14.42-2.26.74a3.9 3.9 0 0 1-1.62-5.01 3.5 3.5 0 0 1 3.54-2.1v.02c.58 1.77 1.09 4.29.34 6.35"/><path fill="#0266C1" d="M14.9 3.53c-.62 0-1.13.54-1.13 1.21s.5 1.21 1.13 1.22c.62 0 1.12-.55 1.12-1.22s-.5-1.21-1.12-1.21m0 1.6c-.2 0-.35-.18-.35-.39 0-.2.15-.38.35-.38s.35.17.35.38-.16.38-.35.38Z"/></symbol><use xlink:href="#sprite-boot" width="24" height="24" y="9"/><view id="sprite-boot-view" viewBox="0 9 24 24"/><symbol id="sprite-boots" fill="none" viewBox="0 0 25 25"><path fill="#fff" d="M0 0h25v25h-25z"/><path fill="#2D383F" d="M24.64 16.27c.78-2.44.14-5.2-.54-7.11a.4.4 0 0 0-.06-.2 17 17 0 0 0-.63-1.5.9.9 0 0 0 .56-.83v-3.7a.9.9 0 0 0-.89-.88h-10.9a.44.44 0 0 0-.45.47c.15 2.66-.04 4.47-.6 5.74l-.04.04v.07a5 5 0 0 1-.86 1.26l-.04.02v.03q-.79.75-1.77 1.2a31 31 0 0 1-3.51 1.3l-.23.08c-4.15 1.38-4.69 3.87-4.68 5.13v3.22q0 .24.21.38a13 13 0 0 0 3.27 1.4.44.44 0 0 0 .56-.44v-.1h.65v.44a.44.44 0 0 0 .37.45q.59.09 1.15.14a.44.44 0 0 0 .48-.44v-.56h.66v.63c0 .24.2.44.44.44q.55.01 1.15-.05a.44.44 0 0 0 .4-.45v-.57h.66v.39a.44.44 0 0 0 .51.44 15 15 0 0 0 2.4-.57l.07-.03c3.11-1.78 5.08-.32 5.16-.25q.12.09.27.09h.55a.44.44 0 0 0 .45-.45v-.75h.63v.74c0 .25.2.45.44.45h1.43a.44.44 0 0 0 .45-.44v-.75h.65v.74c0 .25.2.45.45.45h1.1a.44.44 0 0 0 .44-.44v-4.79a.44.44 0 0 0-.36-.44m-10.53-13.32h8.95v3.67h-8.95zm-5.58 8.85v.02q.55.45 1 .98a1 1 0 0 0-.11.45.85.85 0 1 0 .92-.84q-.42-.58-.95-1.05.6-.34 1.11-.8.65.61 1.2 1.3a.85.85 0 1 0 .8-.56h-.11q-.59-.74-1.27-1.38.32-.4.56-.83 1.03.53 1.99 1.2a.86.86 0 1 0 .47-.77 20 20 0 0 0-2.09-1.23c.49-1.29.7-3 .6-5.33h.58v3.68c0 .49.4.89.89.89h8.31q.19.36.53 1.17h-.18a4.88 4.88 0 0 0-2.88 8.8c-3.6.95-9 2.07-13.54 1.78.84-3.35-.16-5.41-.81-6.32a30 30 0 0 0 2.98-1.16m-3.88 1.41c.48.57 1.73 2.46.82 5.95a11 11 0 0 1-4.56-1.38l-.03-.3v-.04c-.04-.94.32-2.99 3.77-4.23m19.25 7.84v-.74a.44.44 0 0 0-.44-.44h-1.54a.44.44 0 0 0-.45.44v.74h-.54v-.74a.44.44 0 0 0-.45-.44h-1.53a.44.44 0 0 0-.44.44v.72c-.6-.38-2.81-1.47-5.94.28a14 14 0 0 1-1.7.44v-.3a.44.44 0 0 0-.44-.45h-1.53a.44.44 0 0 0-.45.44v.61h-.22v-.62a.44.44 0 0 0-.45-.44h-1.54a.44.44 0 0 0-.44.44v.53l-.23-.03v-.5a.44.44 0 0 0-.44-.44h-1.54a.44.44 0 0 0-.45.39q-1.18-.39-2.26-1.02v-1.59c1.93 1.03 4.44 1.42 7.1 1.42 7.08 0 15.17-2.71 16.13-3.04v3.9zm-.22-4.68c-.37.12-1.3.44-2.58.78a4 4 0 0 1 2.2-7.56v.01c.66 1.89 1.24 4.57.38 6.77"/><path fill="#2D383F" d="M15.82 3.48a1.3 1.3 0 1 0 0 2.59 1.3 1.3 0 0 0 0-2.59m0 1.7a.4.4 0 1 1 0-.8.4.4 0 0 1 0 .8"/></symbol><use xlink:href="#sprite-boots" width="25" height="25" y="33"/><view id="sprite-boots-view" viewBox="0 33 25 25"/><symbol id="sprite-crown" fill="none" viewBox="0 0 24 22"><path stroke="#0266C1" d="M19.3 20.82h-14.6m18.2-14.06-3.18 10.57h-15.44l-3.19-10.57 6.3 3.82 4.61-9.4 4.61 9.4 6.3-3.82Z"/></symbol><use xlink:href="#sprite-crown" width="24" height="22" y="58"/><view id="sprite-crown-view" viewBox="0 58 24 22"/><symbol id="sprite-half-arrow" fill="none" viewBox="0 0 9 14"><path stroke="#2D383F" stroke-width="2" d="m1 13 6-6-6-6"/></symbol><use xlink:href="#sprite-half-arrow" width="9" height="14" y="80"/><view id="sprite-half-arrow-view" viewBox="0 80 9 14"/><symbol id="sprite-leaf" fill="none" viewBox="0 0 24 24"><path stroke="#0266C1" stroke-linecap="round" stroke-linejoin="round" d="M11.66 17.72a10.6 10.6 0 0 0-5.9-7.14 11 11 0 0 0-4.67-1.04c.1 2.21.91 4.36 2.37 6.13a11 11 0 0 0 8.47 3.97q-.04-.96-.27-1.92m0 0c-.6-2.56-2.18-4.8-4.38-6.28l.13-.66a10.5 10.5 0 0 1 4.59-6.42 10.5 10.5 0 0 1 4.72 7.08 10.5 10.5 0 0 0-4.38 6.28m-.68 0q.23.96.27 1.92h.13q1.4 0 2.71-.33l.02-.02q-1.33.33-2.72.35m.27-1.92a10.6 10.6 0 0 1 5.9-7.14 11 11 0 0 1 4.67-1.04 10.3 10.3 0 0 1-2.37 6.13 11 11 0 0 1-8.47 3.97m.27-1.92q-.23.96-.27 1.92"/></symbol><use xlink:href="#sprite-leaf" width="24" height="24" y="94"/><view id="sprite-leaf-view" viewBox="0 94 24 24"/><symbol id="sprite-level" fill="none" viewBox="0 0 12 12"><g stroke="#fff" stroke-linecap="round" stroke-miterlimit="16" clip-path="url(#a)"><path d="M10.9 11.45h-1.95v-10.9h1.96zm-3.92 0v-7.93h-1.96v7.93zm-3.93 0v-4.95h-1.96v4.95z"/></g><defs><clipPath id="a"><path fill="#fff" d="M0 0h12v12h-12z"/></clipPath></defs></symbol><use xlink:href="#sprite-level" width="12" height="12" y="118"/><view id="sprite-level-view" viewBox="0 118 12 12"/><symbol id="sprite-loc" fill="none" viewBox="0 0 16 22"><path stroke="#2D383F" stroke-linecap="round" stroke-linejoin="round" d="M15.5 8.15c0-3.95-3.36-7.15-7.5-7.15s-7.5 3.2-7.5 7.15v.43c0 1.58.52 3.12 1.48 4.4l6 8.01h.03l6-8a7.3 7.3 0 0 0 1.49-4.41z"/><path stroke="#2D383F" stroke-linecap="round" stroke-linejoin="round" d="M6.53 5.29a3.5 3.5 0 0 1 2.94 0c.92.42 1.6 1.23 1.82 2.18a3.1 3.1 0 0 1-.65 2.73 3.4 3.4 0 0 1-2.64 1.21c-1.03 0-2-.45-2.64-1.21a3.1 3.1 0 0 1-.65-2.73c.22-.95.9-1.76 1.82-2.18"/></symbol><use xlink:href="#sprite-loc" width="16" height="22" y="130"/><view id="sprite-loc-view" viewBox="0 130 16 22"/><symbol id="sprite-location" fill="none" viewBox="0 0 16 16"><path fill="#fff" d="M8.5 2a4.46 4.46 0 0 0-4.5 4.42q0 .95.4 1.8a28 28 0 0 0 3.91 5.7.25.25 0 0 0 .38 0c.63-.73 2.8-3.28 3.92-5.7q.39-.85.39-1.8a4.46 4.46 0 0 0-4.5-4.42m0 6.71a2.3 2.3 0 0 1-2.34-2.3 2.3 2.3 0 0 1 2.34-2.29 2.3 2.3 0 0 1 2.34 2.3c0 1.26-1.05 2.3-2.34 2.3Z"/></symbol><use xlink:href="#sprite-location" width="16" height="16" y="152"/><view id="sprite-location-view" viewBox="0 152 16 16"/><symbol id="sprite-logo" fill="none" viewBox="0 0 142 42"><g fill="#fff" clip-path="url(#a)"><path d="m15.73 27.25 3.77-3.9 4.29 3.9h7.34l-11.68-11.25-11.58 11.24z"/><path d="m26.52 9.2-5.56 5.56 3.67 3.7 1.89-1.86 10.31 10.09a16.5 16.5 0 0 1-15.5 10.55c-9.13 0-16.53-7.26-16.53-16.24a16.45 16.45 0 0 1 16.58-16.23c8.1 0 14.89 5.78 16.25 13.32l5 5.18a20.7 20.7 0 0 0-6.12-17.11 21.4 21.4 0 0 0-15.13-6.16 21.4 21.4 0 0 0-15.11 6.15c-4.06 3.98-6.27 9.2-6.27 14.85s2.21 10.87 6.26 14.85 9.42 6.15 15.12 6.15 11.07-2.17 15.12-6.15a20.5 20.5 0 0 0 5.28-8.56c.19-.55.33-1.16.47-1.71l-4.33-4.49zm33.9 4.3h3.14l-1.72 8.46h5.3l-.5 2.45h-8.45zm9.69 0h3.14l-2.22 10.91h-3.15zm8.03 2.38-.5 2.4h4.91l-.49 2.39h-4.89l-.76 3.74h-3.15l2.23-10.91h8.7l-.5 2.38zm10.14 0-.36 1.84h4.93l-.46 2.3h-4.95l-.4 2h5.83l-.5 2.4h-8.92l2.23-10.93h8.7l-.5 2.4zm9.92.06h-3.41l.5-2.44h9.97l-.51 2.44h-3.4l-1.73 8.47h-3.15zm11.85 8.69q-1.68 0-2.93-.6-1.25-.62-1.93-1.7-.66-1.1-.66-2.5 0-1.88.87-3.37a6 6 0 0 1 2.46-2.34q1.59-.84 3.6-.84 1.69 0 2.93.6 1.25.61 1.92 1.7.68 1.1.68 2.5 0 1.87-.89 3.37-.87 1.5-2.46 2.34-1.57.84-3.59.84m.27-2.56q1.05 0 1.85-.51.79-.52 1.22-1.38a4 4 0 0 0 .43-1.91q0-1.11-.7-1.77-.68-.67-1.92-.67-1.05 0-1.85.52a3.4 3.4 0 0 0-1.22 1.39 4 4 0 0 0-.43 1.9q0 1.1.69 1.78.7.65 1.93.65m12.58 2.56q-1.45 0-2.5-.47-1.05-.48-1.6-1.37-.56-.89-.56-2.09 0-.5.13-1.15l1.24-6.06h3.14l-1.22 6a4 4 0 0 0-.1.87q0 1.71 1.85 1.71 1 0 1.57-.59.59-.6.87-1.98l1.23-6h3.1l-1.26 6.19q-1.02 4.94-5.9 4.94m18.53-7.66q0 1.5-.81 2.6-.81 1.07-2.28 1.57l1.9 3.27h-3.3l-1.64-2.9h-1.6l-.58 2.9h-3.14l2.22-10.92h4.75q2.13 0 3.3.92 1.18.92 1.18 2.56m-3.18.3q0-.67-.46-1-.46-.34-1.29-.34h-1.65l-.67 3.2h1.88q1.05 0 1.62-.49t.57-1.37m-77.96 17.44a2 2 0 0 1-1.04-.25 2 2 0 0 1-.73-.7 2 2 0 0 1-.26-.98q0-.55.26-1 .26-.43.73-.68t1.04-.26 1.03.25q.47.25.73.7.27.44.27.98t-.27 1-.73.69q-.45.25-1.03.25m0-.36q.46 0 .83-.2t.58-.57.21-.8-.21-.8a1.5 1.5 0 0 0-.58-.57 2 2 0 0 0-.83-.2q-.46 0-.83.2a1.5 1.5 0 0 0-.59.56q-.2.36-.2.8t.2.81.59.57.83.2m4.4-2.55q.42 0 .75.18t.52.51a1.5 1.5 0 0 1 .18.76q0 .43-.18.76a1.3 1.3 0 0 1-.52.51q-.33.18-.74.18-.36 0-.64-.14a1 1 0 0 1-.47-.42v1.59h-.39v-3.91h.38v.56q.17-.28.46-.43t.66-.15m-.03 2.56q.3 0 .55-.14a1 1 0 0 0 .39-.4q.14-.25.14-.57 0-.33-.14-.58a1 1 0 0 0-.39-.4 1 1 0 0 0-.55-.14q-.3 0-.56.14-.24.15-.39.4a1 1 0 0 0-.13.58q0 .32.13.58.15.25.4.4.24.13.55.13m4.37-2.2h-1.66v2.51h-.4v-2.85h2.06zm1.57-.36q.57 0 .87.28t.3.82v1.77h-.37v-.44a1 1 0 0 1-.4.35q-.25.12-.6.12-.49 0-.77-.23a.7.7 0 0 1-.29-.6q0-.36.27-.59t.85-.22h.92v-.17q0-.37-.2-.56-.22-.2-.62-.2-.28 0-.53.1-.25.08-.44.24l-.17-.29a2 2 0 0 1 .53-.28 2 2 0 0 1 .65-.1m-.14 2.6q.33 0 .57-.15a1 1 0 0 0 .35-.43v-.47h-.9q-.76 0-.76.5a.5.5 0 0 0 .2.4q.2.15.54.15m2.36-2.58h.4v1.26h1.82v-1.26h.4v2.85h-.4v-1.26h-1.83v1.26h-.39zm3.73 0h.39v2.27l1.94-2.27h.35v2.85h-.4v-2.26l-1.93 2.26h-.35zm5.16 1.37a1 1 0 0 1 .47.24.6.6 0 0 1 .17.42.6.6 0 0 1-.17.45q-.18.2-.48.3a2 2 0 0 1-.65.1q-.32 0-.62-.08a2 2 0 0 1-.53-.27l.13-.28q.2.14.47.22.26.09.53.09.4 0 .66-.15t.26-.4a.4.4 0 0 0-.21-.36q-.21-.13-.58-.13h-.5v-.28h.48q.33 0 .53-.12.2-.13.2-.33 0-.23-.23-.36-.22-.13-.58-.13-.47 0-.93.23l-.1-.3a2.3 2.3 0 0 1 1.07-.26q.33 0 .6.1.27.09.42.26t.15.4a.6.6 0 0 1-.16.39 1 1 0 0 1-.4.25m2.53-1.4q.57 0 .88.3.3.27.3.81v1.77h-.38v-.44a1 1 0 0 1-.39.35q-.25.12-.6.12-.5 0-.78-.23a.7.7 0 0 1-.29-.6q0-.36.27-.59t.85-.22h.93v-.17q0-.37-.21-.56t-.62-.2q-.27 0-.53.1-.25.08-.43.24l-.18-.29a2 2 0 0 1 .53-.28 2 2 0 0 1 .65-.1m-.14 2.6q.33 0 .57-.15a1 1 0 0 0 .36-.43v-.47h-.92q-.74 0-.74.5a.5.5 0 0 0 .2.4q.19.15.53.15m5.39-.06v1.05h-.37v-.72h-2.66v-2.85h.4v2.52h1.77v-2.52h.39v2.52zm.75-2.52h.4v2.27l1.93-2.27h.35v2.85h-.4v-2.26l-1.93 2.26h-.35zm6.03 0v2.85h-.36v-.94h-1.02l-.67.94h-.43l.73-1a1 1 0 0 1-.52-.3 1 1 0 0 1-.18-.57q0-.48.33-.73t.9-.25zm-2.06.99q0 .63.83.63h.87v-1.28h-.85q-.85 0-.85.65m7.24-.99v2.85h-.4v-2.5h-1.82v2.5h-.4v-2.85zm2.3 2.88q-.41 0-.75-.18a1.4 1.4 0 0 1-.53-.52 1.5 1.5 0 0 1-.2-.75q0-.42.2-.75t.53-.52.76-.18.76.18.52.52q.2.33.2.75 0 .41-.2.75-.19.33-.52.52a2 2 0 0 1-.76.18m0-.34q.3 0 .55-.13a1 1 0 0 0 .39-.4 1 1 0 0 0 .14-.58 1 1 0 0 0-.14-.58 1 1 0 0 0-.39-.4 1 1 0 0 0-.55-.13q-.31 0-.56.14a1 1 0 0 0-.39.39 1 1 0 0 0-.13.58q0 .32.13.58.15.25.4.4.24.13.55.13m4.03.31-.93-1.19-.92 1.2h-.44l1.14-1.47-1.09-1.39h.44l.88 1.12.87-1.12h.43l-1.1 1.39 1.16 1.46zm2.18.03q-.42 0-.75-.18a1.4 1.4 0 0 1-.53-.52 1.5 1.5 0 0 1-.2-.75q0-.42.2-.75.19-.33.53-.52.33-.18.75-.18t.76.18q.34.19.53.52t.19.75q0 .41-.2.75-.18.33-.52.52a2 2 0 0 1-.76.18m0-.34q.31 0 .56-.13a1 1 0 0 0 .38-.4 1 1 0 0 0 .14-.58 1 1 0 0 0-.14-.58 1 1 0 0 0-.38-.4 1 1 0 0 0-.56-.13q-.3 0-.55.14a1 1 0 0 0-.4.39 1 1 0 0 0-.13.58q0 .32.14.58t.39.4.55.13m5.13-.02v1.02h-.37v-.69h-2.6v.7h-.37v-1.03h.17q.3-.02.4-.43t.14-1.13l.04-.96h2.14v2.52zm-2.27-1.54q-.03.6-.1 1-.08.39-.28.54h1.8v-2.18h-1.39zm4.24 1.9q-.42 0-.76-.18a1.4 1.4 0 0 1-.53-.52 1.5 1.5 0 0 1-.2-.75q0-.42.2-.75t.53-.52.76-.18.75.18.53.52q.2.33.2.75 0 .41-.2.75-.19.33-.53.52a2 2 0 0 1-.75.18m0-.34q.3 0 .55-.13a1 1 0 0 0 .39-.4q.14-.26.13-.58 0-.33-.13-.58a1 1 0 0 0-.39-.4 1 1 0 0 0-.55-.13q-.31 0-.56.14a1 1 0 0 0-.39.39 1 1 0 0 0-.14.58q0 .32.14.58t.39.4.56.13m4.16-1.16q.6.13.6.7 0 .37-.29.57t-.84.2h-1.32v-2.85h1.28q.5 0 .78.19a.6.6 0 0 1 .28.54q0 .24-.13.4a1 1 0 0 1-.36.25m-1.47-.11h.88q.33 0 .5-.12a.4.4 0 0 0 .2-.37.4.4 0 0 0-.2-.36q-.17-.12-.5-.12h-.88zm.92 1.28q.38 0 .57-.12t.19-.37-.18-.38-.54-.12h-.96v.99zm5.36-1.17q.59.13.59.7 0 .37-.28.57t-.84.2h-1.32v-2.85h1.28q.5 0 .78.19a.6.6 0 0 1 .28.54.6.6 0 0 1-.13.4 1 1 0 0 1-.36.25m-1.47-.11h.87q.34 0 .52-.12a.4.4 0 0 0 .18-.37.4.4 0 0 0-.19-.36q-.17-.12-.5-.12h-.88zm.92 1.28q.38 0 .56-.12.2-.12.2-.37 0-.26-.18-.38t-.54-.12h-.96v.99zm5.56-2.2h-1.66v2.5h-.4v-2.85h2.06zm1.63 2.53q-.42 0-.76-.18a1.4 1.4 0 0 1-.53-.52 1.5 1.5 0 0 1-.2-.75q0-.42.2-.75t.53-.52.76-.18.76.18.52.52q.2.33.2.75 0 .41-.2.75-.19.33-.52.52a2 2 0 0 1-.76.18m0-.34q.3 0 .55-.13a1 1 0 0 0 .39-.4 1 1 0 0 0 .14-.58 1 1 0 0 0-.14-.58 1 1 0 0 0-.39-.4 1 1 0 0 0-.55-.13q-.31 0-.56.14a1 1 0 0 0-.38.39 1 1 0 0 0-.14.58q0 .32.14.58t.38.4.56.13m3.81-2.56q.4 0 .74.18t.52.51.19.76-.2.76q-.18.33-.51.51t-.74.18q-.35 0-.64-.14a1 1 0 0 1-.46-.42v1.59h-.4v-3.91h.38v.56a1 1 0 0 1 .46-.43q.3-.15.66-.15m-.03 2.56q.3 0 .55-.14a1 1 0 0 0 .4-.4 1 1 0 0 0 .14-.57 1 1 0 0 0-.15-.58 1 1 0 0 0-.39-.4 1 1 0 0 0-.55-.14q-.3 0-.56.14a1 1 0 0 0-.38.4 1 1 0 0 0-.14.58q0 .32.14.58t.38.4.56.13m3.54-1.53q.55 0 .83.24.3.23.3.67 0 .46-.32.7-.3.24-.88.24h-1.15v-2.86h.4v1zm1.6-1.01h.4v2.85h-.4zm-1.7 2.57q.41 0 .61-.16.21-.17.21-.49t-.2-.47-.61-.15l-.74-.01v1.27z"/></g><defs><clipPath id="a"><path fill="#fff" d="M0 0h142v42h-142z"/></clipPath></defs></symbol><use xlink:href="#sprite-logo" width="142" height="42" y="168"/><view id="sprite-logo-view" viewBox="0 168 142 42"/><symbol id="sprite-logotype" fill="none" viewBox="0 0 142 42"><path fill="#2D383F" d="m15.73 27.24 3.77-3.88 4.29 3.88h7.34l-11.68-11.24-11.58 11.24z"/><path fill="#2D383F" d="m26.52 9.2-5.56 5.56 3.67 3.7 1.89-1.85 10.31 10.08a16.5 16.5 0 0 1-15.5 10.55c-9.13 0-16.53-7.27-16.53-16.24a16.45 16.45 0 0 1 16.58-16.24c8.1 0 14.89 5.79 16.25 13.33l5 5.18a20.7 20.7 0 0 0-6.12-17.11 21.4 21.4 0 0 0-15.13-6.16 21.4 21.4 0 0 0-15.12 6.15 20.6 20.6 0 0 0-6.26 14.85 20.6 20.6 0 0 0 6.26 14.85 21.4 21.4 0 0 0 15.12 6.15c5.7 0 11.07-2.17 15.12-6.15a20.5 20.5 0 0 0 5.28-8.56c.19-.55.33-1.16.47-1.71l-4.33-4.49zm33.89 4.3h3.15l-1.72 8.46h5.3l-.5 2.45h-8.45zm9.69 0h3.15l-2.22 10.91h-3.15zm8.04 2.38-.5 2.4h4.91l-.49 2.39h-4.89l-.76 3.74h-3.15l2.23-10.92h8.7l-.5 2.4zm10.14 0-.36 1.84h4.93l-.46 2.31h-4.95l-.4 2h5.83l-.5 2.38h-8.92l2.23-10.92h8.7l-.5 2.4zm9.92.06h-3.41l.5-2.45h9.97l-.51 2.45h-3.4l-1.73 8.47h-3.15zm11.85 8.69q-1.68 0-2.94-.6a4.6 4.6 0 0 1-1.92-1.7 4.7 4.7 0 0 1-.66-2.5 6.2 6.2 0 0 1 3.34-5.7 7.6 7.6 0 0 1 3.6-.85q1.69 0 2.92.6a4.5 4.5 0 0 1 2.6 4.2 6.5 6.5 0 0 1-.89 3.37q-.87 1.5-2.46 2.34a7.5 7.5 0 0 1-3.59.84m.27-2.56a3.3 3.3 0 0 0 3.07-1.88 4 4 0 0 0 .43-1.92 2.3 2.3 0 0 0-.7-1.77 2.6 2.6 0 0 0-1.92-.67 3.3 3.3 0 0 0-3.07 1.9 4 4 0 0 0-.43 1.91q0 1.1.69 1.78.69.65 1.93.65m12.58 2.56q-1.45 0-2.5-.47a3.6 3.6 0 0 1-1.6-1.37 4 4 0 0 1-.56-2.09q0-.5.13-1.15l1.24-6.06h3.14l-1.22 6q-.1.47-.1.87 0 1.71 1.85 1.71 1 0 1.57-.59.6-.6.87-1.98l1.23-6h3.1l-1.26 6.19q-1.02 4.95-5.9 4.94Zm18.52-7.66q0 1.5-.81 2.6a4.6 4.6 0 0 1-2.28 1.57l1.9 3.27h-3.3l-1.64-2.9h-1.6l-.58 2.9h-3.14l2.22-10.92h4.75q2.13 0 3.3.92a3 3 0 0 1 1.18 2.56m-3.18.3q0-.67-.46-1a2 2 0 0 0-1.29-.34h-1.65l-.67 3.2h1.88q1.05 0 1.62-.49c.57-.49.57-.78.57-1.37m-77.96 17.43q-.57 0-1.04-.24a2 2 0 0 1-.73-.7 2 2 0 0 1-.26-.98 1.9 1.9 0 0 1 .99-1.68q.47-.26 1.04-.26c.57 0 .73.09 1.03.25a1.9 1.9 0 0 1 1 1.68 1.9 1.9 0 0 1-1 1.68q-.45.26-1.03.26Zm0-.35q.45 0 .83-.2a1.5 1.5 0 0 0 .79-1.38q0-.45-.21-.8a1.5 1.5 0 0 0-.58-.56q-.37-.2-.83-.2t-.83.2a1.5 1.5 0 0 0-.8 1.36q0 .45.21.81.22.36.59.57.38.2.83.2m4.41-2.55q.4 0 .74.18a1.3 1.3 0 0 1 .7 1.27 1.3 1.3 0 0 1-.7 1.27q-.33.18-.74.18a1.2 1.2 0 0 1-1.1-.56v1.59h-.4v-3.91h.38v.56q.17-.27.46-.43t.66-.15m-.03 2.56q.3 0 .55-.14t.39-.4.14-.57q0-.33-.14-.58a1 1 0 0 0-.39-.4 1 1 0 0 0-.55-.14q-.31 0-.56.15a1 1 0 0 0-.38.4q-.15.24-.14.57a1.1 1.1 0 0 0 .52.98q.25.13.56.13m4.37-2.2h-1.66v2.51h-.4v-2.85h2.06zm1.57-.36q.57 0 .87.28t.3.83v1.76h-.37v-.44a1 1 0 0 1-.4.35q-.24.12-.6.12-.48 0-.77-.23a.7.7 0 0 1-.29-.6q0-.36.26-.59.28-.22.86-.22h.92v-.17q0-.37-.2-.56a1 1 0 0 0-.62-.2 1.5 1.5 0 0 0-.97.34l-.17-.29a2 2 0 0 1 1.18-.38m-.14 2.6q.33 0 .57-.15.24-.16.35-.43v-.47h-.9q-.75 0-.75.51 0 .25.19.4.19.14.54.14m2.36-2.58h.4v1.26h1.82v-1.26h.4v2.85h-.4v-1.25h-1.83v1.25h-.39zm3.73 0h.39v2.27l1.94-2.27h.35v2.85h-.4v-2.26l-1.93 2.26h-.35zm5.15 1.37a1 1 0 0 1 .48.24.6.6 0 0 1 .17.42q0 .26-.17.45-.18.2-.47.3a2.2 2.2 0 0 1-1.28.02q-.3-.09-.53-.27l.13-.28a2 2 0 0 0 1 .3q.4 0 .66-.14c.26-.14.26-.24.26-.4a.4.4 0 0 0-.21-.36 1 1 0 0 0-.58-.13h-.5v-.28h.48q.33 0 .53-.12.2-.14.2-.33 0-.23-.23-.36a1 1 0 0 0-.58-.13q-.46 0-.93.23l-.1-.3q.51-.26 1.07-.26.33 0 .6.1a1 1 0 0 1 .41.26q.16.18.16.4c0 .22-.05.28-.16.39q-.15.17-.4.25Zm2.54-1.39q.57 0 .87.28t.3.83v1.76h-.37v-.44a1 1 0 0 1-.39.35 1.4 1.4 0 0 1-.6.12q-.5 0-.78-.23a.7.7 0 0 1-.29-.6q0-.36.27-.59t.85-.22h.93v-.17q0-.37-.21-.56c-.21-.19-.35-.2-.62-.2a1.5 1.5 0 0 0-.96.34l-.18-.29a2 2 0 0 1 1.18-.38m-.14 2.6q.34 0 .57-.15a.8.8 0 0 0 .36-.43v-.47h-.92q-.75 0-.74.51 0 .25.2.4.18.14.53.14m5.39-.06v1.05h-.37v-.72h-2.66v-2.85h.4v2.52h1.77v-2.52h.39v2.52zm.75-2.52h.4v2.27l1.93-2.27h.35v2.85h-.4v-2.26l-1.93 2.26h-.35zm6.03 0v2.85h-.36v-.94h-1.02l-.67.94h-.43l.73-1a1 1 0 0 1-.52-.3 1 1 0 0 1-.18-.57q0-.48.33-.73t.9-.25zm-2.06.99q0 .63.83.63h.87v-1.28h-.85q-.84 0-.85.65m7.23-.99v2.85h-.39v-2.5h-1.82v2.5h-.4v-2.85zm2.32 2.88a1.4 1.4 0 0 1-1.48-1.45q0-.42.2-.75.19-.34.52-.52.34-.18.76-.18c.42 0 .53.06.76.18a1.5 1.5 0 0 1 .72 1.27 1.5 1.5 0 0 1-.72 1.27 2 2 0 0 1-.76.18m0-.34q.3 0 .55-.14t.39-.4.14-.57q0-.33-.14-.58a1 1 0 0 0-.39-.4 1 1 0 0 0-.55-.14q-.31 0-.56.15a1 1 0 0 0-.39.39 1 1 0 0 0-.13.58q0 .31.13.58.15.25.4.4.24.13.55.13m4.03.31-.93-1.19-.92 1.2h-.44l1.14-1.47-1.09-1.39h.44l.88 1.12.87-1.12h.43l-1.1 1.39 1.16 1.46zm2.18.03a1.4 1.4 0 0 1-1.48-1.45 1.5 1.5 0 0 1 .73-1.27q.33-.18.75-.18c.42 0 .54.06.76.18a1.5 1.5 0 0 1 .72 1.26 1.5 1.5 0 0 1-.72 1.28q-.33.18-.76.18m0-.34q.32 0 .56-.14t.38-.4q.15-.25.14-.57 0-.33-.14-.58a1 1 0 0 0-.38-.4 1 1 0 0 0-.56-.14q-.3 0-.55.15a1 1 0 0 0-.4.39 1.3 1.3 0 0 0 .01 1.16q.14.25.39.4.24.13.55.13m5.13-.02v1.02h-.37v-.69h-2.6v.7h-.37v-1.03h.17q.3-.01.4-.43.1-.4.14-1.13l.04-.96h2.14v2.52zm-2.27-1.54q-.03.6-.1 1-.09.39-.28.54h1.8v-2.18h-1.39zm4.24 1.9a1.4 1.4 0 0 1-1.48-1.45q0-.42.19-.75c.19-.33.3-.4.53-.52q.33-.18.76-.18c.43 0 .53.06.75.18a1.5 1.5 0 0 1 .73 1.27q0 .41-.2.75-.19.33-.53.52-.33.18-.75.18m0-.34q.3 0 .55-.14t.39-.4q.13-.25.13-.57 0-.33-.13-.58a1 1 0 0 0-.39-.4 1.1 1.1 0 0 0-1.11.01 1 1 0 0 0-.39.39 1.3 1.3 0 0 0 0 1.16q.15.25.39.4.24.13.56.13m4.16-1.16q.6.13.6.7 0 .38-.29.57-.28.2-.84.2h-1.32v-2.85h1.28q.5 0 .78.19t.28.54q0 .24-.13.4t-.36.25m-1.47-.11h.88q.33 0 .5-.13a.4.4 0 0 0 .2-.36.4.4 0 0 0-.2-.36 1 1 0 0 0-.5-.12h-.88zm.92 1.28q.38 0 .57-.12t.19-.37c0-.25-.06-.3-.18-.38q-.16-.12-.54-.12h-.96v.99zm5.36-1.17q.6.13.59.7 0 .38-.28.57-.3.2-.84.2h-1.32v-2.85h1.28q.5 0 .78.19c.28.19.28.3.28.54q0 .24-.13.4t-.36.25m-1.47-.11h.87q.34 0 .52-.13a.4.4 0 0 0 .18-.36.4.4 0 0 0-.19-.36 1 1 0 0 0-.5-.12h-.88zm.92 1.28q.38 0 .56-.12a.4.4 0 0 0 .2-.37q0-.26-.18-.38t-.54-.12h-.96v.99zm5.56-2.21h-1.66v2.51h-.4v-2.85h2.06zm1.63 2.54a1.4 1.4 0 0 1-1.48-1.45q0-.42.2-.75.19-.33.52-.52.34-.18.76-.18c.42 0 .53.06.76.18a1.5 1.5 0 0 1 .72 1.26 1.5 1.5 0 0 1-.72 1.28 2 2 0 0 1-.76.18m0-.34q.3 0 .55-.14t.39-.4.14-.57q0-.33-.14-.58a1 1 0 0 0-.39-.4 1 1 0 0 0-.55-.14q-.31 0-.56.15a1 1 0 0 0-.38.39q-.14.25-.14.58 0 .31.14.58.14.25.38.4.25.13.56.13m3.81-2.56q.4 0 .74.18c.34.18.4.3.52.51a1.6 1.6 0 0 1-.01 1.52q-.18.33-.51.51a1.5 1.5 0 0 1-.74.18 1.2 1.2 0 0 1-1.1-.56v1.59h-.4v-3.91h.38v.56q.18-.28.46-.43.3-.15.66-.15m-.03 2.56q.3 0 .55-.14a1 1 0 0 0 .53-.97q0-.33-.14-.58a1 1 0 0 0-.39-.4 1 1 0 0 0-.55-.14q-.3 0-.56.15a1 1 0 0 0-.38.4 1.3 1.3 0 0 0 0 1.15q.14.25.38.4.26.13.56.13m3.54-1.53q.55 0 .83.24.3.23.3.67t-.32.7q-.3.24-.88.24h-1.15v-2.86h.4v1h.82Zm1.6-1.01h.4v2.85h-.4zm-1.7 2.57q.42 0 .61-.16.21-.17.21-.49 0-.3-.2-.47-.2-.15-.61-.15l-.74-.01v1.27h.74Z"/></symbol><use xlink:href="#sprite-logotype" width="142" height="42" y="210"/><view id="sprite-logotype-view" viewBox="0 210 142 42"/><symbol id="sprite-mail" fill="none" viewBox="0 0 22 16"><path stroke="#2D383F" stroke-linecap="round" stroke-linejoin="round" d="M21 2.56v10.88c0 .86-.64 1.56-1.43 1.56h-17.14c-.79 0-1.43-.7-1.43-1.56v-10.88m20 0c0-.86-.64-1.56-1.43-1.56h-17.14c-.79 0-1.43.7-1.43 1.56m20 0-8.14 7.6c-1.07 1-2.65 1-3.72 0l-8.14-7.6"/></symbol><use xlink:href="#sprite-mail" width="22" height="16" y="252"/><view id="sprite-mail-view" viewBox="0 252 22 16"/><symbol id="sprite-map" fill="none" viewBox="0 0 25 25"><path fill="#2D383F" d="M24.17 22.28v-15.58a.46.46 0 0 0-.6-.46v.02l-2.09.65a6 6 0 0 0 .39-1.82 5.1 5.1 0 0 0-10.19 0 6 6 0 0 0 .36 1.74l-3.45-1.23h-.16l-.16.03-7.14 2.78a.5.5 0 0 0-.3.39v15.6a.46.46 0 0 0 .63.43l6.98-2.7 7.97 2.85q.15.05.3 0l7.13-2.24a.5.5 0 0 0 .33-.46m-7.4-21.35a4.17 4.17 0 0 1 4.17 4.16c0 1.81-2.72 6.82-4.17 9.27-1.45-2.47-4.16-7.48-4.16-9.27a4.17 4.17 0 0 1 4.16-4.16m6.49 21.03-6.23 1.95v-3.53a.46.46 0 0 0-.93 0v3.5l-7.2-2.58v-2.96a.46.46 0 0 0-.92 0v2.96l-6.22 2.43v-7.16l2.29-.93a.46.46 0 1 0-.35-.86l-1.94.79v-6.45l6.22-2.4v1.38a.46.46 0 0 0 .92 0v-1.4l3.56 1.27a64 64 0 0 0 3.92 7.55.46.46 0 0 0 .79 0 65 65 0 0 0 3.9-7.5l2.17-.69.02 7.6-2.35.56a.47.47 0 1 0 .11.93h.11l2.13-.52z"/><path fill="#2D383F" d="M16.76 2.4a2.69 2.69 0 1 0 0 5.38 2.69 2.69 0 0 0 0-5.38m0 4.46a1.77 1.77 0 0 1-1.75-1.77h-.02a1.76 1.76 0 1 1 1.77 1.77m-6.06 7.1v.02l-2.24-.97a.5.5 0 0 0-.36 0l-1.9.77a.46.46 0 1 0 .35.86l1.72-.7 2.06.88.18.04a.46.46 0 0 0 .19-.9m7.57 2.66a.46.46 0 0 0-.52-.32v-.04l-1.15.28-1.94-.85a.47.47 0 0 0-.37.86l2.08.92.19.04h.1l1.3-.32a.46.46 0 0 0 .31-.57"/></symbol><use xlink:href="#sprite-map" width="25" height="25" y="268"/><view id="sprite-map-view" viewBox="0 268 25 25"/><symbol id="sprite-moon" fill="none" viewBox="0 0 12 12"><g clip-path="url(#a)"><path fill="#fff" d="M11.2 6.75a.4.4 0 0 0-.32.07 4.09 4.09 0 0 1-6.75-3.13 3.8 3.8 0 0 1 .89-2.56.36.36 0 0 0-.06-.5.4.4 0 0 0-.32-.07 5.55 5.55 0 0 0 1.42 10.9 5.5 5.5 0 0 0 5.37-4.26.34.34 0 0 0-.23-.45m-2.14 2.93a4.75 4.75 0 0 1-6.35-.38 4.8 4.8 0 0 1 1.18-7.67l-.2.48a4.84 4.84 0 0 0 4.54 6.42 4.6 4.6 0 0 0 2.2-.52q-.5.99-1.37 1.67"/></g><defs><clipPath id="a"><path fill="#fff" d="M0 0h12v12h-12z"/></clipPath></defs></symbol><use xlink:href="#sprite-moon" width="12" height="12" y="293"/><view id="sprite-moon-view" viewBox="0 293 12 12"/><symbol id="sprite-mountain" fill="none" viewBox="0 0 25 25"><path fill="#2D383F" d="m23.42 24.19-4.05-9.4-3.81-8.88a.48.48 0 0 0-.88 0l-3.4 7.9-1.34 3.1-2.93-6.75a.48.48 0 0 0-.88 0l-2.75 6.36-3.34 7.66a.48.48 0 0 0 .44.67h22.5a.48.48 0 0 0 .43-.66m-8.3-16.9 3.1 7.2h-1.09l-1.96-2.17a.48.48 0 0 0-.76.07l-.73 1.13h-1.23zm-8.54 4.24 2.45 5.66h-1.34a.5.5 0 0 0-.4.22l-.48.76-1.23-1.74a.5.5 0 0 0-.39-.2h-.63zm-5.34 12.37 2.9-6.72h.8l1.5 2.12a.5.5 0 0 0 .38.2.5.5 0 0 0 .4-.21l.73-1.14h1.49l2.48 5.73zm11.73 0-2.5-5.77 1.57-3.65h1.9a.5.5 0 0 0 .4-.23l.54-.81 1.68 1.87q.15.15.36.15h1.7l3.64 8.45zm-5.35-21.82a2.25 2.25 0 0 0-4.35.8v.26a2.25 2.25 0 0 0 .9 4.29l.03.02h3.34a2.68 2.68 0 1 0 .08-5.37m-.05 4.43h-3.34a1.3 1.3 0 1 1-.27-2.59.5.5 0 0 0 .36-.62 1.3 1.3 0 1 1 2.5-.64c.05.25.28.42.53.39h.22a1.73 1.73 0 0 1 0 3.46m16.14-3.87v-.25a2.25 2.25 0 0 0-4.35-.82 2.68 2.68 0 0 0 .1 5.36h3.34a2.25 2.25 0 0 0 .9-4.29m.37 2.3a1.3 1.3 0 0 1-1.26 1.03h-3.34a1.73 1.73 0 0 1 0-3.45h.22a.5.5 0 0 0 .51-.38 1.3 1.3 0 1 1 2.51.65.5.5 0 0 0 .36.62c.7.15 1.14.84 1 1.54"/></symbol><use xlink:href="#sprite-mountain" width="25" height="25" y="305"/><view id="sprite-mountain-view" viewBox="0 305 25 25"/><symbol id="sprite-ok" fill="none" viewBox="0 0 11 16"><path fill="#2D383F" d="M5.47 2.42c.97 0 1.76.77 1.76 1.71s-.79 1.7-1.76 1.7-1.76-.76-1.76-1.7.79-1.71 1.76-1.71m0 5.84a4.2 4.2 0 0 0 4.26-4.13 4.2 4.2 0 0 0-4.26-4.13 4.2 4.2 0 0 0-4.25 4.13 4.2 4.2 0 0 0 4.25 4.13m1.72 3.37q1.31-.3 2.47-1c.58-.35.76-1.1.4-1.66a1.27 1.27 0 0 0-1.73-.39 5.6 5.6 0 0 1-5.73 0 1.26 1.26 0 0 0-1.71.39c-.37.56-.2 1.3.39 1.66q1.16.7 2.47 1l-2.38 2.3a1.2 1.2 0 0 0 0 1.71 1.27 1.27 0 0 0 1.76 0l2.34-2.26 2.34 2.26c.48.48 1.27.48 1.76 0 .49-.47.49-1.23 0-1.7z"/></symbol><use xlink:href="#sprite-ok" width="11" height="16" y="330"/><view id="sprite-ok-view" viewBox="0 330 11 16"/><symbol id="sprite-path" fill="none" viewBox="0 0 24 24"><path stroke="#0266C1" stroke-linecap="round" d="M19.8 9.56h-5.85a3.3 3.3 0 0 0-3.31 3.34 3.3 3.3 0 0 0 3.3 3.34h2.54a3.3 3.3 0 0 1 3.31 3.33 3.3 3.3 0 0 1-3.31 3.34h-12.27m3.11-5.53c0-1.74-1.4-3.14-3.11-3.14a3.13 3.13 0 0 0-3.12 3.14v.12c0 .68.22 1.36.62 1.91l2.5 3.45s0 0 0 0l2.5-3.45c.4-.55.61-1.23.61-1.91zm-2.51-1.3.02.01a1.37 1.37 0 0 1 .47 2.12 1.4 1.4 0 0 1-1.08.52h-.03a1.4 1.4 0 0 1-.6-2.64h.02a1.4 1.4 0 0 1 1.2 0Zm18.1-11.83c0-1.73-1.4-3.16-3.12-3.16a3.15 3.15 0 0 0-3.11 3.16c0 .68.21 1.36.62 1.9l2.49 3.37s0 0 0 0l2.5-3.37c.4-.54.62-1.22.62-1.9Zm-2.52-1.36.04.02a1.33 1.33 0 0 1 .46 2.06l-.01.02c-.26.3-.65.49-1.05.49h-.07c-.41 0-.8-.18-1.05-.5l-.02-.01a1.34 1.34 0 0 1 .47-2.06l.04-.02a1.4 1.4 0 0 1 1.19 0Z"/></symbol><use xlink:href="#sprite-path" width="24" height="24" y="346"/><view id="sprite-path-view" viewBox="0 346 24 24"/><symbol id="sprite-pine-tree" fill="none" viewBox="0 0 23 23"><path fill="#2D383F" d="m22.88 16.64-4.62-5.17h2.23c.26 0 .48-.2.48-.46q0-.16-.1-.28l-3.71-4.76h1.89c.26 0 .47-.21.47-.46a.5.5 0 0 0-.12-.3l-4.54-5.05a.5.5 0 0 0-.7 0l-4.55 5.04a.45.45 0 0 0 .03.65.5.5 0 0 0 .32.12h1.91l-1.14 1.45-3.05-3.4a.5.5 0 0 0-.71 0l-3.88 4.32a.45.45 0 0 0 .04.65.5.5 0 0 0 .3.11h1.5l-3.1 3.97a.45.45 0 0 0 .1.65.5.5 0 0 0 .27.08h1.75l-3.84 4.32a.45.45 0 0 0 .05.65q.14.1.3.1h5.23v3.23c0 .5.4.9.91.9h1.44a.9.9 0 0 0 .92-.89v-3.23h3.92v3.23c0 .49.4.89.91.89h1.44c.5 0 .92-.4.92-.9v-4.7h6.38c.26 0 .47-.2.47-.46a.5.5 0 0 0-.12-.3m-14.86 5.44-1.4.03-.02-3.23h1.42zm4.86-4.12h-11.37l3.85-4.3a.45.45 0 0 0-.03-.66.5.5 0 0 0-.33-.12h-1.84l3.1-3.97a.45.45 0 0 0-.08-.64.5.5 0 0 0-.29-.1h-1.41l2.83-3.15 2.83 3.14-2 2.57a.45.45 0 0 0 .1.65.5.5 0 0 0 .28.1h2.24l-4.62 5.16a.45.45 0 0 0 .04.65.5.5 0 0 0 .31.12h6.39zm2.32 4.1-1.38.05-.03-4.7h1.42zm.03-5.58h-7.7l4.62-5.16a.45.45 0 0 0-.04-.65.5.5 0 0 0-.31-.12h-2.32l3.72-4.77a.45.45 0 0 0-.09-.64.5.5 0 0 0-.28-.1h-1.8l3.5-3.88 3.48 3.88h-1.82a.47.47 0 0 0-.47.47q0 .16.1.28l3.7 4.76h-2.3a.47.47 0 0 0-.47.46q0 .17.12.3l4.62 5.17z"/></symbol><use xlink:href="#sprite-pine-tree" width="23" height="23" y="370"/><view id="sprite-pine-tree-view" viewBox="0 370 23 23"/><symbol id="sprite-reddit" fill="none" viewBox="0 0 16 15"><path fill="#2D383F" d="M9.28 0c-.48 0-.92.24-1.21.6-.29.35-.44.78-.56 1.23-.18.73-.24 1.53-.25 2.26a8 8 0 0 0-3.56 1.1c-.4-.34-.9-.53-1.37-.53a1.8 1.8 0 0 0-1.43.72c-.73.92-.64 2.42.2 3.31q-.09.42-.1.84c0 3.02 3.06 5.47 6.84 5.47s6.82-2.45 6.82-5.47q0-.42-.09-.84c.84-.89.93-2.39.2-3.3a1.8 1.8 0 0 0-1.43-.73c-.47 0-.96.2-1.37.54-1-.62-2.2-1.02-3.54-1.11a10 10 0 0 1 .2-1.9q.12-.49.29-.69c.1-.13.18-.18.36-.18.39 0 .44.12.67.43q.16.23.47.53c.31.3.54.35.88.35v-1.31c-.1 0-.11 0-.18-.07l-.29-.37c-.26-.35-.78-.88-1.55-.88m3.76.12c-.9 0-1.63.83-1.63 1.85s.73 1.85 1.63 1.85 1.62-.83 1.62-1.85-.72-1.85-1.62-1.85m0 .66c.58 0 1.05.54 1.05 1.2s-.47 1.18-1.05 1.18-1.05-.53-1.05-1.19.47-1.19 1.05-1.19m-5.2 4.34c3.2 0 5.9 2.02 5.9 4.41s-2.7 4.42-5.9 4.42-5.91-2.02-5.91-4.42 2.7-4.41 5.9-4.41Zm-5.5.6q.24 0 .5.12a5 5 0 0 0-1.36 1.72c-.22-.5-.16-1.14.1-1.48q.31-.37.76-.37Zm10.99 0q.46 0 .76.36c.26.34.32.97.1 1.48a5 5 0 0 0-1.35-1.72q.24-.12.49-.13Zm-7.8 1.64c-.58 0-1.05.53-1.05 1.19s.47 1.19 1.04 1.19 1.05-.53 1.05-1.2c0-.65-.47-1.18-1.05-1.18Zm4.62 0c-.58 0-1.05.53-1.05 1.19s.47 1.19 1.05 1.19 1.05-.53 1.05-1.2c0-.65-.47-1.18-1.05-1.18m-5.19 4.04c.37.87 1.51 1.71 2.88 1.71s2.52-.84 2.89-1.7c-.67.48-1.73.82-2.9.82-1.16 0-2.2-.34-2.87-.83"/></symbol><use xlink:href="#sprite-reddit" width="16" height="15" y="393"/><view id="sprite-reddit-view" viewBox="0 393 16 15"/><symbol id="sprite-shield" fill="none" viewBox="0 0 24 24"><path stroke="#0266C1" d="m9.55 11.9 2.45 2.45 4.3-4.28m-4.3-8.98a18 18 0 0 1-9.4 1.95 17.96 17.96 0 0 0 9.4 19.87 18 18 0 0 0 9.54-12.9c.42-2.33.36-4.7-.14-6.97a18 18 0 0 1-9.4-1.95Z"/></symbol><use xlink:href="#sprite-shield" width="24" height="24" y="408"/><view id="sprite-shield-view" viewBox="0 408 24 24"/><symbol id="sprite-stars-1" fill="none" viewBox="0 0 84 16"><path fill="#fff" d="m7.63 11.7 4.72 2.6-1.25-4.92 4.17-3.3-5.5-.44-2.14-4.64-2.14 4.64-5.49.43 4.16 3.31-1.24 4.92z"/><path fill="#fff" fill-rule="evenodd" d="m24.63 10.55 3.19 1.76-.84-3.31 2.68-2.13-3.54-.28-1.49-3.2-1.48 3.2-3.54.28 2.68 2.13-.84 3.3zm-4.71 3.75 1.24-4.92-4.16-3.3 5.49-.44 2.14-4.64 2.15 4.64 5.49.43-4.17 3.31 1.25 4.92-4.72-2.6zm21.71-3.75 3.19 1.76-.84-3.31 2.68-2.13-3.54-.28-1.49-3.2-1.48 3.2-3.54.28 2.68 2.13-.84 3.3zm-4.71 3.75 1.24-4.92-4.16-3.3 5.49-.44 2.14-4.64 2.15 4.64 5.49.43-4.17 3.31 1.25 4.92-4.72-2.6zm21.71-3.75 3.19 1.76-.84-3.31 2.68-2.13-3.54-.28-1.49-3.2-1.48 3.2-3.54.28 2.68 2.13-.84 3.3zm-4.71 3.75 1.24-4.92-4.16-3.3 5.49-.44 2.14-4.64 2.15 4.64 5.49.43-4.17 3.31 1.25 4.92-4.72-2.6zm21.71-3.75 3.19 1.76-.84-3.31 2.68-2.13-3.54-.28-1.49-3.2-1.48 3.2-3.54.28 2.68 2.13-.84 3.3zm-4.71 3.75 1.24-4.92-4.16-3.3 5.49-.44 2.14-4.64 2.15 4.64 5.49.43-4.17 3.31 1.25 4.92-4.72-2.6z" clip-rule="evenodd"/></symbol><use xlink:href="#sprite-stars-1" width="84" height="16" y="432"/><view id="sprite-stars-1-view" viewBox="0 432 84 16"/><symbol id="sprite-stars-2" fill="none" viewBox="0 0 84 16"><path fill="#fff" d="m7.63 11.7 4.72 2.6-1.25-4.92 4.17-3.3-5.5-.44-2.14-4.64-2.14 4.64-5.49.43 4.16 3.31-1.24 4.92zm17 0 4.72 2.6-1.25-4.92 4.17-3.3-5.5-.44-2.14-4.64-2.14 4.64-5.49.43 4.16 3.31-1.24 4.92z"/><path fill="#fff" fill-rule="evenodd" d="m41.63 10.55 3.19 1.76-.84-3.31 2.68-2.13-3.54-.28-1.49-3.2-1.48 3.2-3.54.28 2.68 2.13-.84 3.3zm-4.71 3.75 1.24-4.92-4.16-3.3 5.49-.44 2.14-4.64 2.15 4.64 5.49.43-4.17 3.31 1.25 4.92-4.72-2.6zm21.71-3.75 3.19 1.76-.84-3.31 2.68-2.13-3.54-.28-1.49-3.2-1.48 3.2-3.54.28 2.68 2.13-.84 3.3zm-4.71 3.75 1.24-4.92-4.16-3.3 5.49-.44 2.14-4.64 2.15 4.64 5.49.43-4.17 3.31 1.25 4.92-4.72-2.6zm21.71-3.75 3.19 1.76-.84-3.31 2.68-2.13-3.54-.28-1.49-3.2-1.48 3.2-3.54.28 2.68 2.13-.84 3.3zm-4.71 3.75 1.24-4.92-4.16-3.3 5.49-.44 2.14-4.64 2.15 4.64 5.49.43-4.17 3.31 1.25 4.92-4.72-2.6z" clip-rule="evenodd"/></symbol><use xlink:href="#sprite-stars-2" width="84" height="16" y="448"/><view id="sprite-stars-2-view" viewBox="0 448 84 16"/><symbol id="sprite-stars-3" fill="none" viewBox="0 0 84 16"><path fill="#fff" d="m7.63 11.7 4.72 2.6-1.25-4.92 4.17-3.3-5.5-.44-2.14-4.64-2.14 4.64-5.49.43 4.16 3.31-1.24 4.92zm17 0 4.72 2.6-1.25-4.92 4.17-3.3-5.5-.44-2.14-4.64-2.14 4.64-5.49.43 4.16 3.31-1.24 4.92zm17 0 4.72 2.6-1.25-4.92 4.17-3.3-5.5-.44-2.14-4.64-2.14 4.64-5.49.43 4.16 3.31-1.24 4.92z"/><path fill="#fff" fill-rule="evenodd" d="m58.63 10.55 3.19 1.76-.84-3.31 2.68-2.13-3.54-.28-1.49-3.2-1.48 3.2-3.54.28 2.68 2.13-.84 3.3zm-4.71 3.75 1.24-4.92-4.16-3.3 5.49-.44 2.14-4.64 2.15 4.64 5.49.43-4.17 3.31 1.25 4.92-4.72-2.6zm21.71-3.75 3.19 1.76-.84-3.31 2.68-2.13-3.54-.28-1.49-3.2-1.48 3.2-3.54.28 2.68 2.13-.84 3.3zm-4.71 3.75 1.24-4.92-4.16-3.3 5.49-.44 2.14-4.64 2.15 4.64 5.49.43-4.17 3.31 1.25 4.92-4.72-2.6z" clip-rule="evenodd"/></symbol><use xlink:href="#sprite-stars-3" width="84" height="16" y="464"/><view id="sprite-stars-3-view" viewBox="0 464 84 16"/><symbol id="sprite-stars-4" fill="none" viewBox="0 0 84 16"><path fill="#fff" d="m7.63 11.7 4.72 2.6-1.25-4.92 4.17-3.3-5.5-.44-2.14-4.64-2.14 4.64-5.49.43 4.16 3.31-1.24 4.92zm17 0 4.72 2.6-1.25-4.92 4.17-3.3-5.5-.44-2.14-4.64-2.14 4.64-5.49.43 4.16 3.31-1.24 4.92zm17 0 4.72 2.6-1.25-4.92 4.17-3.3-5.5-.44-2.14-4.64-2.14 4.64-5.49.43 4.16 3.31-1.24 4.92zm17 0 4.72 2.6-1.25-4.92 4.17-3.3-5.5-.44-2.14-4.64-2.14 4.64-5.49.43 4.16 3.31-1.24 4.92z"/><path fill="#fff" fill-rule="evenodd" d="m75.63 10.55 3.19 1.76-.84-3.31 2.68-2.13-3.54-.28-1.49-3.2-1.48 3.2-3.54.28 2.68 2.13-.84 3.3zm-4.71 3.75 1.24-4.92-4.16-3.3 5.49-.44 2.14-4.64 2.15 4.64 5.49.43-4.17 3.31 1.25 4.92-4.72-2.6z" clip-rule="evenodd"/></symbol><use xlink:href="#sprite-stars-4" width="84" height="16" y="480"/><view id="sprite-stars-4-view" viewBox="0 480 84 16"/><symbol id="sprite-stars-5" fill="none" viewBox="0 0 84 16"><path fill="#fff" d="m7.63 11.7 4.72 2.6-1.25-4.92 4.17-3.3-5.5-.44-2.14-4.64-2.14 4.64-5.49.43 4.16 3.31-1.24 4.92zm17 0 4.72 2.6-1.25-4.92 4.17-3.3-5.5-.44-2.14-4.64-2.14 4.64-5.49.43 4.16 3.31-1.24 4.92zm17 0 4.72 2.6-1.25-4.92 4.17-3.3-5.5-.44-2.14-4.64-2.14 4.64-5.49.43 4.16 3.31-1.24 4.92zm17 0 4.72 2.6-1.25-4.92 4.17-3.3-5.5-.44-2.14-4.64-2.14 4.64-5.49.43 4.16 3.31-1.24 4.92zm17 0 4.72 2.6-1.25-4.92 4.17-3.3-5.5-.44-2.14-4.64-2.14 4.64-5.49.43 4.16 3.31-1.24 4.92z"/></symbol><use xlink:href="#sprite-stars-5" width="84" height="16" y="496"/><view id="sprite-stars-5-view" viewBox="0 496 84 16"/><symbol id="sprite-sun" fill="none" viewBox="0 0 20 20"><path fill="#fff" d="M13.54 6.46a5 5 0 0 0-3.54-1.49 5.04 5.04 0 0 0-5.03 5.03 5.04 5.04 0 0 0 8.57 3.54 4.93 4.93 0 0 0 0-7.09Zm-.95 6.13a3.7 3.7 0 0 1-2.59 1.06c-1 0-1.93-.4-2.6-1.06a3.7 3.7 0 0 1-1.05-2.59c0-1 .4-1.93 1.06-2.6a3.7 3.7 0 0 1 2.59-1.05c1 0 1.93.4 2.6 1.06a3.7 3.7 0 0 1 1.05 2.59c0 1-.4 1.93-1.06 2.6Zm6.72-3.28h-2.03a.7.7 0 0 0-.7.69c0 .37.32.69.7.69h2.03a.7.7 0 0 0 .69-.69.7.7 0 0 0-.69-.69m-9.31 7.28a.7.7 0 0 0-.69.69v2.03c0 .37.32.69.69.69a.7.7 0 0 0 .69-.69v-2.03a.7.7 0 0 0-.69-.7Zm7.06-.48-1.45-1.45c-.24-.27-.69-.27-.95 0a.67.67 0 0 0 0 .95l1.45 1.45c.27.27.69.27.95 0a.67.67 0 0 0 0-.95m-7.06-16.11a.7.7 0 0 0-.69.69v2.03c0 .38.32.7.69.7a.7.7 0 0 0 .69-.7v-2.03a.7.7 0 0 0-.69-.69m7.09 2.94a.67.67 0 0 0-.95 0l-1.46 1.45a.67.67 0 0 0 0 .95c.24.27.69.27.95 0l1.46-1.45a.67.67 0 0 0 0-.95m-14.37 6.37h-2.03a.7.7 0 0 0-.69.69c0 .37.3.69.69.69h2.03a.7.7 0 0 0 .7-.69.7.7 0 0 0-.7-.69m2.6 5.35c-.24-.27-.69-.27-.95 0l-1.46 1.45a.67.67 0 0 0 0 .95c.26.27.69.27.95 0l1.46-1.45a.67.67 0 0 0 0-.95m0-10.26-1.46-1.46a.67.67 0 0 0-.95 0 .67.67 0 0 0 0 .95l1.46 1.45c.26.27.68.27.95 0a.67.67 0 0 0 0-.95Z"/></symbol><use xlink:href="#sprite-sun" width="20" height="20" y="512"/><view id="sprite-sun-view" viewBox="0 512 20 20"/><symbol id="sprite-tel" fill="none" viewBox="0 0 22 22"><path stroke="#2D383F" stroke-linecap="round" stroke-linejoin="round" d="M19.32 20.04a1.7 1.7 0 0 1-1.68.95l-.9-.12a18.75 18.75 0 0 1-15.61-15.67l-.12-.9a1.7 1.7 0 0 1 .94-1.7l2.75-1.4c1.07-.55 2.35.09 2.73 1.23a19 19 0 0 0 1.3 3.02c.4.76.13 1.74-.66 2.1a1.8 1.8 0 0 0-.52 2.9l3.95 3.98a1.8 1.8 0 0 0 2.9-.53 1.6 1.6 0 0 1 2.21-.72 19 19 0 0 0 2.93 1.2c1.16.36 1.81 1.67 1.26 2.75z"/></symbol><use xlink:href="#sprite-tel" width="22" height="22" y="532"/><view id="sprite-tel-view" viewBox="0 532 22 22"/><symbol id="sprite-training-vk" fill="none" viewBox="0 0 14 8"><path fill="#2D383F" d="M13.93 7.23a7 7 0 0 0-1.44-1.7l-.02-.02v-.01h-.02l-.6-.6q-.21-.3-.1-.6.1-.23.66-.95l.48-.62q1.26-1.68 1.09-2.15l-.04-.07q-.04-.07-.23-.12a1 1 0 0 0-.47-.02l-2.1.01h-.14l-.1.03-.03.02-.03.02-.08.07a3.8 3.8 0 0 1-2 3.3q-.13.1-.2.08l-.12-.03-.16-.18a1 1 0 0 1-.09-.28 3 3 0 0 1-.02-.65l.02-.9.02-.92q0-.21-.02-.34l-.08-.23a.4.4 0 0 0-.15-.17l-.24-.1a5 5 0 0 0-.98-.1q-1.36 0-1.75.18-.16.07-.27.22-.14.15-.04.17.45.07.62.32l.04.08a3 3 0 0 1 .17.87 6 6 0 0 1-.17 1.85l-.08.16-.04.04-.2.03q-.1 0-.25-.1c-.15-.1-.2-.16-.3-.28a9 9 0 0 1-.76-1.26l-.12-.21a18 18 0 0 1-.63-1.35.5.5 0 0 0-.18-.24l-.03-.02a1 1 0 0 0-.28-.1h-2q-.3 0-.42.15l-.03.04-.02.12q0 .08.04.2a24 24 0 0 0 2.62 4.62 16 16 0 0 0 .72.89l.18.17a9 9 0 0 0 1.26.9 4 4 0 0 0 2.03.5h.84q.25 0 .39-.15l.03-.04a1 1 0 0 0 .08-.34q-.01-.31.04-.56t.13-.38a1 1 0 0 1 .28-.32l.06-.03q.17-.05.4.12.25.17.45.42a7 7 0 0 0 1.01 1.03l.15.1q.14.07.38.15t.4.04l1.87-.03q.28 0 .43-.1.15-.08.18-.2v-.24z"/></symbol><use xlink:href="#sprite-training-vk" width="14" height="8" y="554"/><view id="sprite-training-vk-view" viewBox="0 554 14 8"/><symbol id="sprite-vk" fill="none" viewBox="0 0 18 9"><path fill="#2D383F" d="M17.5 8.03c-.04-.07-.33-.64-1.68-1.81-1.43-1.23-1.23-1.03.48-3.15q1.54-1.93 1.33-2.42c-.13-.32-.9-.24-.9-.24l-2.54.02s-.2-.03-.33.05a1 1 0 0 0-.23.26s-.4 1-.94 1.85c-1.14 1.79-1.6 1.88-1.78 1.77-.43-.26-.32-1.04-.32-1.6 0-1.74.28-2.46-.56-2.65a5 5 0 0 0-1.19-.1c-.91-.02-1.68 0-2.12.2-.29.13-.51.42-.38.44.17.02.56.1.76.35.26.33.25 1.07.25 1.07s.15 2.05-.35 2.3c-.35.18-.82-.18-1.83-1.8-.52-.84-.91-1.76-.91-1.76s-.08-.17-.21-.26a1 1 0 0 0-.4-.15l-2.42.01s-.37.01-.5.16c-.12.13 0 .4 0 .4s1.89 4.13 4.04 6.21c1.97 1.9 4.21 1.78 4.21 1.78h1.02s.3-.03.46-.19c.14-.14.14-.41.14-.41s-.02-1.27.61-1.45c.62-.18 1.42 1.22 2.27 1.76.64.41 1.13.32 1.13.32l2.27-.03s1.19-.07.62-.93"/></symbol><use xlink:href="#sprite-vk" width="18" height="9" y="562"/><view id="sprite-vk-view" viewBox="0 562 18 9"/></svg>